<svg width="605" height="448" viewBox="0 0 605 448" fill="none" xmlns="http://www.w3.org/2000/svg">
<g clip-path="url(#clip0)">
<path d="M526.987 448C570.072 448 605 443.47 605 437.882C605 432.293 570.072 427.763 526.987 427.763C483.901 427.763 448.974 432.293 448.974 437.882C448.974 443.47 483.901 448 526.987 448Z" fill="#3F3D56"/>
<path d="M235.518 14.847H0V161.697H235.518V14.847Z" fill="#F2F2F2"/>
<path d="M250.373 0.539886H14.8549V147.39H250.373V0.539886Z" stroke="#3F3D56" stroke-width="2" stroke-miterlimit="10"/>
<path d="M168.789 109.58C175.89 102.483 180.726 93.44 182.685 83.5956C184.644 73.7511 183.639 63.5471 179.796 54.2738C175.952 45.0006 169.444 37.0746 161.094 31.4981C152.744 25.9217 142.927 22.9453 132.884 22.9453V73.6948L168.789 109.58Z" fill="#3F3D56"/>
<path d="M132.884 22.9453C121.598 22.9466 110.634 26.7055 101.723 33.6282C92.8129 40.551 86.4635 50.2431 83.6781 61.1741C80.8926 72.1051 81.8298 83.6521 86.3416 93.9914C90.8534 104.331 98.6827 112.873 108.593 118.27L132.884 73.6948V22.9453Z" fill="#A113E4"/>
<path d="M168.789 109.58L132.884 73.6948L108.593 118.27C118.222 123.506 129.287 125.489 140.136 123.923C150.985 122.357 161.036 117.325 168.789 109.58Z" fill="#575A89"/>
<path d="M33.4911 116.886H23.7679V126.604H33.4911V116.886Z" fill="#A113E4"/>
<path d="M47.5357 116.886H37.8125V126.604H47.5357V116.886Z" fill="#3F3D56"/>
<path d="M61.5804 116.886H51.8571V126.604H61.5804V116.886Z" fill="#575A89"/>
<path d="M231.737 119.045H191.763V120.665H231.737V119.045Z" fill="#3F3D56"/>
<path d="M231.737 123.904H191.763V125.524H231.737V123.904Z" fill="#3F3D56"/>
<path d="M231.737 128.763H191.763V130.383H231.737V128.763Z" fill="#3F3D56"/>
<path d="M207.969 219.465H74.0045V366.314H207.969V219.465Z" fill="#F2F2F2"/>
<path d="M221.473 205.428H87.5089V352.277H221.473V205.428Z" stroke="#3F3D56" stroke-width="2" stroke-miterlimit="10"/>
<path d="M101.754 335.71H94.5312V342.93H101.754V335.71Z" fill="#A113E4"/>
<path d="M112.187 335.71H104.964V342.93H112.187V335.71Z" fill="#3F3D56"/>
<path d="M122.621 335.71H115.398V342.93H122.621V335.71Z" fill="#575A89"/>
<path d="M203.647 338.846H175.558V339.984H203.647V338.846Z" fill="#3F3D56"/>
<path d="M203.647 342.26H175.558V343.398H203.647V342.26Z" fill="#3F3D56"/>
<path d="M203.647 345.675H175.558V346.813H203.647V345.675Z" fill="#3F3D56"/>
<path d="M154.491 231.342V243.22C161.542 243.22 168.435 245.31 174.298 249.225C180.161 253.14 184.731 258.705 187.429 265.216C190.127 271.727 190.833 278.892 189.458 285.804C188.082 292.716 184.687 299.065 179.701 304.049L188.104 312.447C194.752 305.803 199.279 297.337 201.113 288.121C202.948 278.905 202.006 269.353 198.408 260.671C194.81 251.99 188.718 244.57 180.901 239.349C173.083 234.129 163.893 231.342 154.491 231.342Z" fill="#3F3D56"/>
<path d="M188.104 312.447L179.701 304.049C173.605 310.142 165.507 313.821 156.906 314.404C148.305 314.986 139.784 312.434 132.921 307.219L125.728 316.678C134.88 323.63 146.242 327.032 157.71 326.254C169.178 325.476 179.976 320.571 188.104 312.447Z" fill="#575A89"/>
<path d="M118.839 278.853C118.839 269.402 122.595 260.339 129.281 253.656C135.967 246.974 145.036 243.22 154.491 243.22V231.342C144.54 231.342 134.84 234.463 126.758 240.266C118.676 246.068 112.62 254.26 109.443 263.685C106.266 273.11 106.129 283.294 109.05 292.801C111.972 302.309 117.806 310.66 125.728 316.678L132.921 307.219C128.542 303.899 124.991 299.61 122.548 294.688C120.105 289.767 118.835 284.346 118.839 278.853Z" fill="#A113E4"/>
<path d="M503.244 76.1207C503.244 76.1207 501.04 92.4851 506.707 94.3733C512.375 96.2615 510.8 110.738 510.8 110.738L493.798 123.64L478.684 124.899L474.905 105.388L477.109 100.353C477.109 100.353 485.611 90.2822 479.628 79.8971C473.646 69.512 503.244 76.1207 503.244 76.1207Z" fill="#FFB9B9"/>
<path opacity="0.1" d="M503.244 76.1207C503.244 76.1207 501.04 92.4851 506.707 94.3733C512.375 96.2615 510.8 110.738 510.8 110.738L493.798 123.64L478.684 124.899L474.905 105.388L477.109 100.353C477.109 100.353 485.611 90.2822 479.628 79.8971C473.646 69.512 503.244 76.1207 503.244 76.1207Z" fill="black"/>
<path d="M487.5 203.574L467.663 250.149C467.663 250.149 452.235 241.338 443.104 242.282C433.973 243.226 422.637 232.212 422.637 232.212L433.973 177.454L455.069 119.234L484.351 137.802L487.5 203.574Z" fill="#575A89"/>
<path opacity="0.1" d="M487.5 203.574L467.663 250.149C467.663 250.149 452.235 241.338 443.104 242.282C433.973 243.226 422.637 232.212 422.637 232.212L433.973 177.454L455.069 119.234L484.351 137.802L487.5 203.574Z" fill="black"/>
<path d="M518.672 401.52V416.625H504.503L506.707 399.002L518.672 401.52Z" fill="#575A89"/>
<path d="M555.512 375.4L565.902 381.694L558.345 399.002L550.474 398.058L542.917 387.358L555.512 375.4Z" fill="#575A89"/>
<path d="M521.506 199.168L540.083 242.911C540.083 242.911 533.471 291.375 533.786 295.466C534.101 299.557 534.415 301.131 532.841 304.592C531.267 308.054 530.637 310.257 531.582 314.348C532.526 318.439 532.841 320.013 532.211 321.586C531.582 323.16 527.174 387.988 524.969 392.393C522.765 396.799 526.229 404.037 524.025 404.667C521.821 405.296 505.448 403.723 504.503 399.946C503.558 396.17 507.652 387.044 505.448 384.211C503.244 381.379 505.762 279.416 502.614 272.493C499.465 265.57 464.83 259.276 464.83 259.276C464.83 259.276 461.681 239.135 463.57 235.988C465.459 232.841 467.978 213.015 467.978 213.015L521.506 199.168Z" fill="#2F2E41"/>
<path d="M503.244 414.108C503.244 414.108 512.06 403.723 519.617 414.108C519.617 414.108 520.246 426.381 525.599 428.899C530.952 431.416 528.433 441.486 520.876 441.801C513.319 442.116 503.558 443.375 503.244 439.284C502.929 435.192 504.503 432.675 501.669 431.416C498.835 430.157 501.669 422.919 501.669 422.919L503.244 414.108Z" fill="#2F2E41"/>
<path d="M504.188 263.681C504.188 263.681 503.873 286.34 501.669 289.487C499.465 292.634 498.206 294.522 499.465 297.984C500.725 301.445 502.614 307.739 501.669 308.998C500.725 310.257 502.614 316.866 502.614 316.866C502.614 316.866 526.859 328.509 538.194 352.741C538.194 352.741 549.844 371.938 553.308 372.253C556.771 372.567 560.864 370.05 558.975 377.288C557.086 384.526 549.844 393.967 544.491 393.023C539.139 392.079 535.045 382.952 535.045 382.952C535.045 382.952 493.168 340.468 488.76 339.209C484.351 337.95 471.757 327.88 469.553 321.586C467.349 315.292 462.626 262.737 464.83 259.276C467.034 255.814 475.22 251.093 475.22 251.093L504.188 263.681Z" fill="#2F2E41"/>
<path d="M558.66 374.141C558.66 374.141 578.182 374.77 578.497 379.491C578.812 384.211 570.31 412.219 571.57 418.828C572.829 425.437 561.809 440.542 554.567 437.395C547.325 434.248 552.993 417.884 552.993 417.884C552.993 417.884 545.751 395.54 547.01 395.226C548.27 394.911 560.864 391.135 560.235 387.358C559.605 383.582 558.66 374.141 558.66 374.141Z" fill="#2F2E41"/>
<path d="M488.602 92.9571C499.384 92.9571 508.124 84.2216 508.124 73.4457C508.124 62.6699 499.384 53.9344 488.602 53.9344C477.821 53.9344 469.08 62.6699 469.08 73.4457C469.08 84.2216 477.821 92.9571 488.602 92.9571Z" fill="#FFB9B9"/>
<path d="M508.281 103.5C508.281 103.5 497.576 114.829 489.704 112.941C481.832 111.052 477.739 97.5203 477.739 97.5203L463.57 95.0027C463.57 95.0027 453.494 139.69 453.494 144.096C453.494 148.502 463.57 196.021 463.57 204.518C463.57 213.015 455.384 218.05 467.978 217.735C480.573 217.421 474.591 213.33 492.853 213.015C511.115 212.7 513.949 216.791 517.727 210.183C520.304 205.871 523.485 201.95 527.174 198.539L520.561 175.251L519.617 109.479C519.617 109.479 511.544 93.7439 507.866 95.0027C507.866 95.0027 509.856 101.926 508.281 103.5Z" fill="#A113E4"/>
<path d="M504.403 92.2193C504.403 92.2193 521.191 94.0585 525.914 97.5202C530.637 100.982 543.862 103.5 543.547 106.017C543.232 108.535 528.118 144.41 528.118 144.41C528.118 144.41 521.191 172.733 527.174 179.342C533.156 185.951 555.512 258.017 551.733 263.996C547.955 269.975 535.99 245.744 535.99 245.744C535.99 245.744 519.932 193.818 511.115 185.007C502.299 176.195 501.669 128.675 501.669 126.473C501.669 124.27 504.403 92.2193 504.403 92.2193Z" fill="#575A89"/>
<path d="M479.847 95.8694C479.847 95.8694 459.162 88.0793 451.92 91.2263C444.678 94.3733 440.27 95.0027 440.27 95.0027L437.751 125.843C437.751 125.843 436.806 170.216 428.62 180.916C420.433 191.615 415.08 236.303 416.34 240.708C417.599 245.114 414.136 252.667 419.489 250.779C424.841 248.891 439.64 205.462 439.64 205.462C439.64 205.462 439.64 180.601 448.457 173.677C457.273 166.754 471.757 138.116 472.386 131.193C473.016 124.27 478.999 105.073 478.999 105.073L479.847 95.8694Z" fill="#575A89"/>
<path d="M550.789 195.077C550.789 195.077 541.343 212.7 540.083 215.847C538.824 218.994 530.007 240.394 517.413 235.673C504.818 230.953 529.692 207.98 529.692 207.98L535.36 188.783C535.36 188.783 550.159 185.636 550.789 195.077Z" fill="#FFB9B9"/>
<path d="M443.419 95.0026H440.27C440.27 95.0026 437.121 92.4851 433.343 94.0586C429.564 95.632 420.748 93.4292 420.748 94.3733C420.748 95.3174 410.987 91.541 406.894 93.4292C402.801 95.3174 388.002 95.9467 388.002 95.9467C388.002 95.9467 382.019 111.052 386.113 113.885C390.206 116.717 396.188 114.514 399.022 116.717C401.856 118.92 407.209 116.402 409.098 119.234C410.987 122.067 417.914 127.102 419.489 123.955C421.063 120.808 417.914 117.976 424.526 121.437C431.139 124.899 441.529 124.899 441.529 124.899L443.419 95.0026Z" fill="#575A89"/>
<path d="M490.362 59.0299C487.72 58.4198 484.978 59.0959 482.302 59.5341C479.627 59.9724 476.678 60.1168 474.415 58.6248C472.743 57.5229 471.716 55.6999 470.751 53.9464C470.348 53.3202 470.08 52.6173 469.963 51.8822C469.849 50.5853 470.674 49.4021 471.551 48.4392C475.622 43.9663 481.572 41.5182 487.572 40.7405C492.504 40.1013 497.646 40.5294 502.2 42.5259C506.755 44.5225 510.67 48.1788 512.461 52.8161C513.286 55.1895 513.801 57.6594 513.993 60.1645C514.264 62.0076 514.298 63.8777 514.096 65.7296C513.855 67.1025 513.494 68.4516 513.017 69.7615L510.051 78.7133C509.838 79.5592 509.44 80.3473 508.885 81.0208C508.6 81.3506 508.216 81.5793 507.79 81.6726C507.364 81.7659 506.919 81.7187 506.522 81.5382C506.759 80.5659 506.795 79.5554 506.628 78.5686C506.535 78.0768 506.297 77.624 505.945 77.2687C505.592 76.9133 505.141 76.6716 504.65 76.5747C503.557 76.4587 502.623 77.3058 501.586 77.6706C501.087 77.8184 500.563 77.8614 500.046 77.7969C499.53 77.7324 499.033 77.5617 498.586 77.2958C498.139 77.0298 497.752 76.6742 497.449 76.2514C497.146 75.8286 496.934 75.3477 496.826 74.839C496.662 73.8156 496.937 72.72 496.549 71.7589C496.094 70.6328 494.888 70.0428 493.983 69.2337C493.156 68.4713 492.564 67.4888 492.277 66.4018C491.99 65.3148 492.019 64.1684 492.362 63.0975C492.604 62.3525 493.289 62.0139 493.152 61.158C492.972 60.0352 491.316 59.2502 490.362 59.0299Z" fill="#2F2E41"/>
<path d="M407.835 127.684H273.871V274.533H407.835V127.684Z" fill="#F2F2F2"/>
<path d="M421.339 113.647H287.375V260.496H421.339V113.647Z" stroke="#3F3D56" stroke-width="2" stroke-miterlimit="10"/>
<path d="M300.339 122.825V235.122H408.915" stroke="#3F3D56" stroke-width="2" stroke-miterlimit="10"/>
<path d="M330.589 195.71H306.281V234.582H330.589V195.71Z" fill="#575A89"/>
<path d="M365.701 169.255H341.393V234.582H365.701V169.255Z" fill="#3F3D56"/>
<path d="M400.812 138.481H376.504V234.582H400.812V138.481Z" fill="#A113E4"/>
<path d="M305.942 243.929H298.719V251.149H305.942V243.929Z" fill="#A113E4"/>
<path d="M316.375 243.929H309.152V251.149H316.375V243.929Z" fill="#3F3D56"/>
<path d="M326.808 243.929H319.585V251.149H326.808V243.929Z" fill="#575A89"/>
<path d="M407.835 247.065H379.746V248.203H407.835V247.065Z" fill="#3F3D56"/>
<path d="M407.835 250.479H379.746V251.617H407.835V250.479Z" fill="#3F3D56"/>
<path d="M407.835 253.894H379.746V255.032H407.835V253.894Z" fill="#3F3D56"/>
<path d="M391.255 95.9286C396.997 96.1781 401.263 101.382 400.642 107.092C400.079 112.265 398.003 118.702 391.465 121.175C379.815 125.58 380.445 100.719 382.649 99.7749C384.118 99.1456 386.427 95.7188 391.255 95.9286Z" fill="#FFB9B9"/>
<path d="M540.083 104.336L543.547 106.017C543.547 106.017 551.104 121.437 551.418 123.64C551.733 125.843 556.771 134.025 554.882 136.228C552.993 138.431 550.159 144.096 552.048 146.299C553.937 148.502 558.346 157.313 558.346 160.46C558.346 163.607 553.622 172.104 556.771 173.048C559.92 173.992 558.975 186.265 558.346 187.21C557.716 188.154 549.529 203.574 549.529 203.574C549.529 203.574 547.955 185.951 532.526 193.189C532.526 193.189 531.267 184.377 532.526 183.748C533.786 183.118 536.934 179.342 534.416 178.713C531.897 178.083 528.433 170.53 529.063 169.586C529.692 168.642 531.267 167.383 529.692 166.439C528.118 165.495 526.859 160.145 527.174 159.201C527.488 158.257 523.71 153.851 523.71 153.851L540.083 104.336Z" fill="#575A89"/>
</g>
<defs>
<clipPath id="clip0">
<rect width="605" height="448" fill="white"/>
</clipPath>
</defs>
</svg>
